<svg width="1085" height="600" viewBox="0 0 1085 600" fill="none" xmlns="http://www.w3.org/2000/svg">
<path d="M394.05 119.22C410.677 118.073 425.297 117.5 437.91 117.5C473.457 117.5 491.23 130.042 491.23 155.125C491.23 166.735 488.22 176.912 482.2 185.655C479.047 190.385 474.173 194.183 467.58 197.05C460.987 199.773 453.032 201.135 443.715 201.135H411.895V268H394.05V119.22ZM438.125 119.65C429.812 119.65 421.068 120.152 411.895 121.155V198.985H443.715C463.925 198.125 474.03 183.648 474.03 155.555C474.03 144.088 471.02 135.273 465 129.11C458.98 122.803 450.022 119.65 438.125 119.65ZM557.393 268.86C542.343 268.86 530.088 264.56 520.628 255.96C511.168 247.36 506.438 234.102 506.438 216.185C506.438 198.268 511.311 184.365 521.058 174.475C530.948 164.585 543.418 159.64 558.468 159.64C573.661 159.64 585.988 163.94 595.448 172.54C604.908 181.14 609.638 194.398 609.638 212.315C609.638 230.232 604.693 244.135 594.803 254.025C585.056 263.915 572.586 268.86 557.393 268.86ZM558.898 161.36C548.005 161.36 538.975 166.233 531.808 175.98C524.641 185.583 521.058 199.057 521.058 216.4C521.058 233.6 524.355 246.357 530.948 254.67C537.541 262.983 546.285 267.14 557.178 267.14C568.071 267.14 577.101 262.338 584.268 252.735C591.435 242.988 595.018 229.515 595.018 212.315C595.018 194.972 591.721 182.143 585.128 173.83C578.535 165.517 569.791 161.36 558.898 161.36ZM663.611 169.745V165.23C657.161 167.81 651.285 173.042 645.981 180.925C640.678 188.665 637.883 195.975 637.596 202.855V268H622.546V160.5H637.596V194.685C639.89 186.372 644.261 178.56 650.711 171.25C657.161 163.797 664.471 159.927 672.641 159.64H673.501C676.368 159.64 678.733 160.643 680.596 162.65C682.603 164.513 683.606 166.878 683.606 169.745C683.606 172.612 682.603 174.977 680.596 176.84C678.733 178.703 676.368 179.635 673.501 179.635C670.635 179.635 668.27 178.703 666.406 176.84C664.543 174.977 663.611 172.612 663.611 169.745ZM698.737 162.22V160.5H703.252V139H718.302V160.5H751.197V162.22H718.302V240.48C718.302 249.797 719.305 256.533 721.312 260.69C723.462 264.847 727.834 266.925 734.427 266.925C741.164 266.925 747.972 265.563 754.852 262.84L755.497 264.56C748.33 267.283 740.089 268.645 730.772 268.645C721.599 268.645 714.719 266.782 710.132 263.055C705.545 259.185 703.252 251.588 703.252 240.265V162.22H698.737ZM811.866 268.86C796.816 268.86 784.561 264.56 775.101 255.96C765.641 247.36 760.911 234.102 760.911 216.185C760.911 198.268 765.784 184.365 775.531 174.475C785.421 164.585 797.891 159.64 812.941 159.64C828.134 159.64 840.461 163.94 849.921 172.54C859.381 181.14 864.111 194.398 864.111 212.315C864.111 230.232 859.166 244.135 849.276 254.025C839.529 263.915 827.059 268.86 811.866 268.86ZM813.371 161.36C802.477 161.36 793.447 166.233 786.281 175.98C779.114 185.583 775.531 199.057 775.531 216.4C775.531 233.6 778.827 246.357 785.421 254.67C792.014 262.983 800.757 267.14 811.651 267.14C822.544 267.14 831.574 262.338 838.741 252.735C845.907 242.988 849.491 229.515 849.491 212.315C849.491 194.972 846.194 182.143 839.601 173.83C833.007 165.517 824.264 161.36 813.371 161.36Z" fill="#222020"/>
<path d="M231.5 293.25C238.833 292.917 246 292.75 253 292.75C260.167 292.75 267.667 293.5 275.5 295C283.5 296.5 291.333 299.333 299 303.5C306.833 307.5 313.417 312.75 318.75 319.25C324.25 325.583 328.667 334 332 344.5C335.333 355 337 367.75 337 382.75C337 397.75 334.5 411.25 329.5 423.25C324.667 435.083 318 444.167 309.5 450.5C293 462.833 273.083 469 249.75 469C241.583 469 233 468.667 224 468H211.5V293.25H231.5ZM232.25 466C235.75 466.333 240.167 466.5 245.5 466.5C250.833 466.5 254.833 466.417 257.5 466.25C260.167 466.083 263.833 465.417 268.5 464.25C273.167 462.917 277.5 461.167 281.5 459C285.5 456.833 289.667 453.667 294 449.5C298.5 445.167 302.333 440.083 305.5 434.25C312.667 420.583 316.25 402.75 316.25 380.75C316.25 365.083 314.333 351.583 310.5 340.25C306.667 328.75 302.25 320.25 297.25 314.75C292.417 309.25 286.5 304.917 279.5 301.75C272.5 298.417 266.917 296.5 262.75 296C258.583 295.5 253.75 295.25 248.25 295.25C242.75 295.25 237.417 295.5 232.25 296V466ZM418.768 469C401.268 469 387.018 464 376.018 454C365.018 444 359.518 428.583 359.518 407.75C359.518 386.917 365.184 370.75 376.518 359.25C388.018 347.75 402.518 342 420.018 342C437.684 342 452.018 347 463.018 357C474.018 367 479.518 382.417 479.518 403.25C479.518 424.083 473.768 440.25 462.268 451.75C450.934 463.25 436.434 469 418.768 469ZM420.518 344C407.851 344 397.351 349.667 389.018 361C380.684 372.167 376.518 387.833 376.518 408C376.518 428 380.351 442.833 388.018 452.5C395.684 462.167 405.851 467 418.518 467C431.184 467 441.684 461.417 450.018 450.25C458.351 438.917 462.518 423.25 462.518 403.25C462.518 383.083 458.684 368.167 451.018 358.5C443.351 348.833 433.184 344 420.518 344ZM673.867 303.5C658.701 297.667 644.367 294.75 630.867 294.75C617.534 294.75 607.117 297.583 599.617 303.25C592.117 308.917 588.367 316.75 588.367 326.75C588.367 338.917 594.701 348.333 607.367 355C613.034 357.833 619.201 360.5 625.867 363C632.701 365.333 639.534 368 646.367 371C653.201 374 659.451 377.417 665.117 381.25C670.784 385.083 675.367 390.417 678.867 397.25C682.367 403.917 684.117 412.5 684.117 423C684.117 433.333 681.201 442.167 675.367 449.5C669.534 456.833 662.451 461.833 654.117 464.5C645.951 467 636.367 468.25 625.367 468.25C604.867 468.25 587.367 463.167 572.867 453L574.117 451C579.617 455.333 586.701 458.917 595.367 461.75C604.201 464.417 613.201 465.75 622.367 465.75C635.867 465.75 647.367 462.667 656.867 456.5C666.534 450.167 671.367 440.917 671.367 428.75C671.367 415.417 665.034 405 652.367 397.5C646.701 394.167 640.451 391.083 633.617 388.25C626.951 385.417 620.201 382.5 613.367 379.5C606.534 376.333 600.284 372.833 594.617 369C581.951 360.667 575.617 348.833 575.617 333.5C575.617 321.333 579.701 311.5 587.867 304C596.034 296.333 608.284 292.5 624.617 292.5C641.117 292.5 657.867 295.333 674.867 301L673.867 303.5ZM762.029 469C744.529 469 730.279 464 719.279 454C708.279 444 702.779 428.583 702.779 407.75C702.779 386.917 708.446 370.75 719.779 359.25C731.279 347.75 745.779 342 763.279 342C780.946 342 795.279 347 806.279 357C817.279 367 822.779 382.417 822.779 403.25C822.779 424.083 817.029 440.25 805.529 451.75C794.196 463.25 779.696 469 762.029 469ZM763.779 344C751.113 344 740.613 349.667 732.279 361C723.946 372.167 719.779 387.833 719.779 408C719.779 428 723.613 442.833 731.279 452.5C738.946 462.167 749.113 467 761.779 467C774.446 467 784.946 461.417 793.279 450.25C801.613 438.917 805.779 423.25 805.779 403.25C805.779 383.083 801.946 368.167 794.279 358.5C786.613 348.833 776.446 344 763.779 344ZM874.422 468C859.755 468 850.505 464.167 846.672 456.5C845.839 454.833 845.422 453.333 845.422 452V280.75H862.922V450.25C862.922 455.083 863.839 458.833 865.672 461.5C867.672 464 869.672 465.333 871.672 465.5L874.422 466H882.172V468H874.422Z" fill="#222020"/>
<path d="M327.1 162.567C287.059 162.567 254.6 195.026 254.6 235.067C254.6 246.132 257.078 256.618 261.511 266H359V169.944C349.373 165.22 338.546 162.567 327.1 162.567Z" fill="#222020" stroke="#222020" stroke-width="7"/>
<path d="M359 121V266H214" stroke="#222020" stroke-width="7" stroke-linecap="round"/>
<path d="M333.866 121V139.367" stroke="#222020" stroke-width="7" stroke-linecap="round"/>
<path d="M296.24 126.776L301.856 144.263" stroke="#222020" stroke-width="7" stroke-linecap="round"/>
<path d="M262.229 144.274L273.048 159.117" stroke="#222020" stroke-width="7" stroke-linecap="round"/>
<path d="M235.32 171.192L250.141 182.04" stroke="#222020" stroke-width="7" stroke-linecap="round"/>
<path d="M217.881 205.055L235.346 210.738" stroke="#222020" stroke-width="7" stroke-linecap="round"/>
<path d="M214 242.8H232.367" stroke="#222020" stroke-width="7" stroke-linecap="round"/>
</svg>
