<svg width="1404" height="600" viewBox="0 0 1404 600" fill="none" xmlns="http://www.w3.org/2000/svg">
<path d="M569.05 117.22C585.677 116.073 600.297 115.5 612.91 115.5C648.457 115.5 666.23 128.042 666.23 153.125C666.23 164.735 663.22 174.912 657.2 183.655C654.047 188.385 649.173 192.183 642.58 195.05C635.987 197.773 628.032 199.135 618.715 199.135H586.895V266H569.05V117.22ZM613.125 117.65C604.812 117.65 596.068 118.152 586.895 119.155V196.985H618.715C638.925 196.125 649.03 181.648 649.03 153.555C649.03 142.088 646.02 133.273 640 127.11C633.98 120.803 625.022 117.65 613.125 117.65ZM732.393 266.86C717.343 266.86 705.088 262.56 695.628 253.96C686.168 245.36 681.438 232.102 681.438 214.185C681.438 196.268 686.311 182.365 696.058 172.475C705.948 162.585 718.418 157.64 733.468 157.64C748.661 157.64 760.988 161.94 770.448 170.54C779.908 179.14 784.638 192.398 784.638 210.315C784.638 228.232 779.693 242.135 769.803 252.025C760.056 261.915 747.586 266.86 732.393 266.86ZM733.898 159.36C723.005 159.36 713.975 164.233 706.808 173.98C699.641 183.583 696.058 197.057 696.058 214.4C696.058 231.6 699.355 244.357 705.948 252.67C712.541 260.983 721.285 265.14 732.178 265.14C743.071 265.14 752.101 260.338 759.268 250.735C766.435 240.988 770.018 227.515 770.018 210.315C770.018 192.972 766.721 180.143 760.128 171.83C753.535 163.517 744.791 159.36 733.898 159.36ZM838.611 167.745V163.23C832.161 165.81 826.285 171.042 820.981 178.925C815.678 186.665 812.883 193.975 812.596 200.855V266H797.546V158.5H812.596V192.685C814.89 184.372 819.261 176.56 825.711 169.25C832.161 161.797 839.471 157.927 847.641 157.64H848.501C851.368 157.64 853.733 158.643 855.596 160.65C857.603 162.513 858.606 164.878 858.606 167.745C858.606 170.612 857.603 172.977 855.596 174.84C853.733 176.703 851.368 177.635 848.501 177.635C845.635 177.635 843.27 176.703 841.406 174.84C839.543 172.977 838.611 170.612 838.611 167.745ZM873.737 160.22V158.5H878.252V137H893.302V158.5H926.197V160.22H893.302V238.48C893.302 247.797 894.305 254.533 896.312 258.69C898.462 262.847 902.834 264.925 909.427 264.925C916.164 264.925 922.972 263.563 929.852 260.84L930.497 262.56C923.33 265.283 915.089 266.645 905.772 266.645C896.599 266.645 889.719 264.782 885.132 261.055C880.545 257.185 878.252 249.588 878.252 238.265V160.22H873.737ZM986.866 266.86C971.816 266.86 959.561 262.56 950.101 253.96C940.641 245.36 935.911 232.102 935.911 214.185C935.911 196.268 940.784 182.365 950.531 172.475C960.421 162.585 972.891 157.64 987.941 157.64C1003.13 157.64 1015.46 161.94 1024.92 170.54C1034.38 179.14 1039.11 192.398 1039.11 210.315C1039.11 228.232 1034.17 242.135 1024.28 252.025C1014.53 261.915 1002.06 266.86 986.866 266.86ZM988.371 159.36C977.477 159.36 968.447 164.233 961.281 173.98C954.114 183.583 950.531 197.057 950.531 214.4C950.531 231.6 953.827 244.357 960.421 252.67C967.014 260.983 975.757 265.14 986.651 265.14C997.544 265.14 1006.57 260.338 1013.74 250.735C1020.91 240.988 1024.49 227.515 1024.49 210.315C1024.49 192.972 1021.19 180.143 1014.6 171.83C1008.01 163.517 999.264 159.36 988.371 159.36Z" fill="#222020"/>
<path d="M591.5 294.25C598.833 293.917 606 293.75 613 293.75C620.167 293.75 627.667 294.5 635.5 296C643.5 297.5 651.333 300.333 659 304.5C666.833 308.5 673.417 313.75 678.75 320.25C684.25 326.583 688.667 335 692 345.5C695.333 356 697 368.75 697 383.75C697 398.75 694.5 412.25 689.5 424.25C684.667 436.083 678 445.167 669.5 451.5C653 463.833 633.083 470 609.75 470C601.583 470 593 469.667 584 469H571.5V294.25H591.5ZM592.25 467C595.75 467.333 600.167 467.5 605.5 467.5C610.833 467.5 614.833 467.417 617.5 467.25C620.167 467.083 623.833 466.417 628.5 465.25C633.167 463.917 637.5 462.167 641.5 460C645.5 457.833 649.667 454.667 654 450.5C658.5 446.167 662.333 441.083 665.5 435.25C672.667 421.583 676.25 403.75 676.25 381.75C676.25 366.083 674.333 352.583 670.5 341.25C666.667 329.75 662.25 321.25 657.25 315.75C652.417 310.25 646.5 305.917 639.5 302.75C632.5 299.417 626.917 297.5 622.75 297C618.583 296.5 613.75 296.25 608.25 296.25C602.75 296.25 597.417 296.5 592.25 297V467ZM778.768 470C761.268 470 747.018 465 736.018 455C725.018 445 719.518 429.583 719.518 408.75C719.518 387.917 725.184 371.75 736.518 360.25C748.018 348.75 762.518 343 780.018 343C797.684 343 812.018 348 823.018 358C834.018 368 839.518 383.417 839.518 404.25C839.518 425.083 833.768 441.25 822.268 452.75C810.934 464.25 796.434 470 778.768 470ZM780.518 345C767.851 345 757.351 350.667 749.018 362C740.684 373.167 736.518 388.833 736.518 409C736.518 429 740.351 443.833 748.018 453.5C755.684 463.167 765.851 468 778.518 468C791.184 468 801.684 462.417 810.018 451.25C818.351 439.917 822.518 424.25 822.518 404.25C822.518 384.083 818.684 369.167 811.018 359.5C803.351 349.833 793.184 345 780.518 345ZM1033.87 304.5C1018.7 298.667 1004.37 295.75 990.867 295.75C977.534 295.75 967.117 298.583 959.617 304.25C952.117 309.917 948.367 317.75 948.367 327.75C948.367 339.917 954.701 349.333 967.367 356C973.034 358.833 979.201 361.5 985.867 364C992.701 366.333 999.534 369 1006.37 372C1013.2 375 1019.45 378.417 1025.12 382.25C1030.78 386.083 1035.37 391.417 1038.87 398.25C1042.37 404.917 1044.12 413.5 1044.12 424C1044.12 434.333 1041.2 443.167 1035.37 450.5C1029.53 457.833 1022.45 462.833 1014.12 465.5C1005.95 468 996.367 469.25 985.367 469.25C964.867 469.25 947.367 464.167 932.867 454L934.117 452C939.617 456.333 946.701 459.917 955.367 462.75C964.201 465.417 973.201 466.75 982.367 466.75C995.867 466.75 1007.37 463.667 1016.87 457.5C1026.53 451.167 1031.37 441.917 1031.37 429.75C1031.37 416.417 1025.03 406 1012.37 398.5C1006.7 395.167 1000.45 392.083 993.617 389.25C986.951 386.417 980.201 383.5 973.367 380.5C966.534 377.333 960.284 373.833 954.617 370C941.951 361.667 935.617 349.833 935.617 334.5C935.617 322.333 939.701 312.5 947.867 305C956.034 297.333 968.284 293.5 984.617 293.5C1001.12 293.5 1017.87 296.333 1034.87 302L1033.87 304.5ZM1122.03 470C1104.53 470 1090.28 465 1079.28 455C1068.28 445 1062.78 429.583 1062.78 408.75C1062.78 387.917 1068.45 371.75 1079.78 360.25C1091.28 348.75 1105.78 343 1123.28 343C1140.95 343 1155.28 348 1166.28 358C1177.28 368 1182.78 383.417 1182.78 404.25C1182.78 425.083 1177.03 441.25 1165.53 452.75C1154.2 464.25 1139.7 470 1122.03 470ZM1123.78 345C1111.11 345 1100.61 350.667 1092.28 362C1083.95 373.167 1079.78 388.833 1079.78 409C1079.78 429 1083.61 443.833 1091.28 453.5C1098.95 463.167 1109.11 468 1121.78 468C1134.45 468 1144.95 462.417 1153.28 451.25C1161.61 439.917 1165.78 424.25 1165.78 404.25C1165.78 384.083 1161.95 369.167 1154.28 359.5C1146.61 349.833 1136.45 345 1123.78 345ZM1234.42 469C1219.76 469 1210.51 465.167 1206.67 457.5C1205.84 455.833 1205.42 454.333 1205.42 453V281.75H1222.92V451.25C1222.92 456.083 1223.84 459.833 1225.67 462.5C1227.67 465 1229.67 466.333 1231.67 466.5L1234.42 467H1242.17V469H1234.42Z" fill="#222020"/>
<path d="M421.88 222.187C326.335 222.187 248.88 299.642 248.88 395.187C248.88 421.59 254.795 446.613 265.372 469H498V239.79C475.03 228.517 449.194 222.187 421.88 222.187Z" stroke="#222020" stroke-width="15"/>
<path d="M498 123V469H152" stroke="#222020" stroke-width="15" stroke-linecap="round"/>
<path d="M438.025 123V166.827" stroke="#222020" stroke-width="15" stroke-linecap="round"/>
<path d="M348.242 136.782L361.641 178.51" stroke="#222020" stroke-width="15" stroke-linecap="round"/>
<path d="M267.086 178.538L292.901 213.955" stroke="#222020" stroke-width="15" stroke-linecap="round"/>
<path d="M202.876 242.768L238.242 268.653" stroke="#222020" stroke-width="15" stroke-linecap="round"/>
<path d="M161.261 323.571L202.937 337.132" stroke="#222020" stroke-width="15" stroke-linecap="round"/>
<path d="M152 413.639H195.827" stroke="#222020" stroke-width="15" stroke-linecap="round"/>
</svg>
